<?xml version="1.0" standalone="no"?>
<svg xmlns="http://www.w3.org/2000/svg" viewBox="0 0 175.656 36" width="175.656" height="36"><g fill="#d6af69" color="#d6af69" transform="translate(0 5.166666666666666) scale(0.5833334)"><svg width="48.0" height="44.0" x="0.0" y="0.0" viewBox="0 0 48 44"><path fill="currentColor" fill-rule="evenodd" d="M24.763 8.596c1.868.282 3.747.587 5.59 1.01a7.996 7.996 0 0 1 4.921 3.464 18.1 18.1 0 0 1 3.464 6.87 19.034 19.034 0 0 1-1.256 9.771 21.722 21.722 0 0 1-16.394 14.07 4.375 4.375 0 0 1-.787.105c-.74.012-1.48 0-2.22 0A13.011 13.011 0 0 1 6.49 38.954 13.7 13.7 0 0 1 3.812 25.33a24.735 24.735 0 0 1 11.803-14.104 51.061 51.061 0 0 1 7.281-2.584 4.176 4.176 0 0 1 1.867-.047zm8.425-2.944a29.6 29.6 0 0 1 4.404 2.783c.952.822 1.75 1.797 2.373 2.89.892 1.479 1.62 3.064 2.384 4.638a9.342 9.342 0 0 1 .798 4.932 35.376 35.376 0 0 1-3.476 13.694 16.857 16.857 0 0 1-4.885 5.907c-1.034.787-1.973 1.738-3.03 2.513a5.195 5.195 0 0 1-2.09.857 19.77 19.77 0 0 1-3.007.047c2.736-2.114 5.367-3.946 7.762-6.048a13.098 13.098 0 0 0 3.019-4.005 33.365 33.365 0 0 0 3.464-13.376 8.172 8.172 0 0 0-1.609-5.66 7.411 7.411 0 0 1-.834-1.327 12.767 12.767 0 0 0-10.405-7.082 30.114 30.114 0 0 0-7.046.552c-.575.07-1.14.247-1.715.34A24.827 24.827 0 0 0 1.492 21.413c-.329.599-.67 1.198-1.01 1.785l-.258.141a3.787 3.787 0 0 1 .422-3.394c1.01-1.668 2.102-3.276 3.206-4.885.681-.999 1.515-1.903 2.15-2.925a13.644 13.644 0 0 1 5.472-4.65 37.277 37.277 0 0 1 14.28-3.7c2.62-.129 5.191.53 7.434 1.868zM.458 28.744c.282 1.468.67 2.912.799 4.392a13.722 13.722 0 0 0 5.508 9.724c.156.133.303.276.449.42l.22.214-.082.387H5.508l-.74-.387a10.94 10.94 0 0 1-2.067-1.421 11.788 11.788 0 0 1-2.503-3.29l-.186-.374v-8.315c0-.334.033-.663.065-.989l.03-.326.351-.035zM26.035.182c4.545-.646 9.16.446 12.942 3.03.517.317 1.08.598 1.902 1.056v-.046c.834.74 1.621 1.55 2.314 2.43.305.388.599.776.88 1.163a5.12 5.12 0 0 0 .623 1.844 32.307 32.307 0 0 1 2.89 9.301 21.791 21.791 0 0 1-2.408 14.962c-.13.293-.247.575-.364.857-.576.857-1.104 1.738-1.668 2.595A19.433 19.433 0 0 1 38.8 42.12a9.08 9.08 0 0 1-3.946 1.75l-.6-.024-.105-.352a22.258 22.258 0 0 0 8.092-9.712 20.624 20.624 0 0 0 2.642-10.311 43.813 43.813 0 0 0-1.538-9.325 17.739 17.739 0 0 0-8.82-10.699 16.24 16.24 0 0 0-3.946-1.01 28.783 28.783 0 0 0-13.153.423c-.305.059-.61.118-.928.165-.152 0-.317-.024-.47-.06l.06-.246C19.4 1.85 22.675.768 26.034.182zM21.17 10.804c-2.008.34-3.946 1.127-5.93 1.644a8.614 8.614 0 0 0-4.029 2.607 27.953 27.953 0 0 0-6.189 10.523 12.86 12.86 0 0 0 1.62 10.91 12.084 12.084 0 0 0 11.016 5.648A15.704 15.704 0 0 0 25.503 40a30.021 30.021 0 0 0 6.354-5.649 14.187 14.187 0 0 0 4.321-10.84 15.087 15.087 0 0 0-3.018-9.465 4.664 4.664 0 0 0-3.617-2.22c-1.35-.093-2.666-.645-4.005-.833a15.579 15.579 0 0 0-4.368-.188zm11.037 5.945a13.018 13.018 0 0 1 2.055 6.553 16.394 16.394 0 0 1-7.035 13.622 12.786 12.786 0 0 1-11.873 2.478 9.599 9.599 0 0 1-8.033-9.606 12.639 12.639 0 0 1 5.297-11.697 50.238 50.238 0 0 1 4.897-2.76c-.517.505-.998 1.057-1.562 1.504a14.817 14.817 0 0 0-6.095 13.352 7.897 7.897 0 0 0 8.233 7.528c.293-.012.587-.035.88-.082a15.648 15.648 0 0 0 8.832-4.204 11.756 11.756 0 0 0 3.91-12.25 8.719 8.719 0 0 0-7.621-6.4c-1.727-.129-3.465.047-5.203.083a12.015 12.015 0 0 1 5.86-1.527 7.31 7.31 0 0 1 7.458 3.406zm-5.088 1.544a7.957 7.957 0 0 1 3.206 8.232 9.034 9.034 0 0 1-4.228 6.213 21.533 21.533 0 0 1-4.133 2.29 7.145 7.145 0 0 1-9.419-3.629 7.105 7.105 0 0 1-.54-3.875 12.689 12.689 0 0 1 6.048-9.642 7.785 7.785 0 0 1 9.066.41zm-5.919.716a8.27 8.27 0 0 0-6.365 3.136 8.155 8.155 0 0 0-1.703 5.155c-.34 3.054 1.856 5.825 4.92 6.166l.565.035a9.126 9.126 0 0 0 8.89-7.68 5.36 5.36 0 0 0-3.418-6.107c-.94-.305-1.914-.54-2.889-.705zm.412 3.276c2.22.023 3.183.927 3.406 3.276a4.296 4.296 0 0 1-1.973 4.204 4.353 4.353 0 0 1-4.58.729 3.178 3.178 0 0 1-1.808-4.11c.082-.212.188-.435.317-.623a16.95 16.95 0 0 1 1.573-2.161 3.407 3.407 0 0 1 3.065-1.315z"></path></svg></g><path fill="#154e2f" fill-rule="nonzero" d="M0.84 20.86L0 19.85Q2.88 17.76 2.88 13.56L2.88 13.56L2.88 1.99L0.67 1.46L0.67 0.36L8.04 0.36L8.04 1.46L5.83 1.99L5.83 13.56Q5.83 16.03 4.28 18.04Q2.74 20.04 0.84 20.86L0.84 20.86ZM14.11 17.16L8.06 17.16L8.06 16.06L10.32 15.53L16.15 0.24L17.88 0.24L23.35 15.55L25.56 16.06L25.56 17.16L18.50 17.16L18.50 16.06L20.28 15.65L19.13 12.41L13.25 12.41L12 15.58L14.11 16.06L14.11 17.16ZM16.25 4.44L13.78 10.99L18.60 10.99L16.25 4.44ZM26.06 8.76L26.06 8.76Q26.06 4.58 28.40 2.29Q30.74 0 35.14 0L35.14 0Q37.92 0 39.79 0.82L39.79 0.82L39.79 5.38L38.69 5.38L37.56 1.80Q36.36 1.61 35.54 1.61L35.54 1.61Q32.47 1.61 30.78 3.43Q29.09 5.26 29.09 8.76L29.09 8.76Q29.09 12.29 30.62 14.10Q32.16 15.91 35.06 15.91L35.06 15.91Q36.12 15.91 36.96 15.74L36.96 15.74L36.96 10.73L34.22 10.22L34.22 9.38L41.69 9.38L41.69 10.22L39.91 10.73L39.91 16.34Q37.70 17.52 34.75 17.52L34.75 17.52Q30.53 17.52 28.30 15.24Q26.06 12.96 26.06 8.76ZM45.00 1.99L42.79 1.46L42.79 0.36L50.16 0.36L50.16 1.46L47.95 1.99L47.95 10.87Q47.95 13.27 49.14 14.47Q50.33 15.67 52.34 15.67L52.34 15.67Q54.34 15.67 55.56 14.46Q56.78 13.25 56.78 10.87L56.78 10.87L56.78 1.99L54.55 1.46L54.55 0.36L60.70 0.36L60.70 1.46L58.49 1.99L58.49 10.87Q58.49 12.46 58.00 13.70Q57.50 14.95 56.62 15.79Q55.73 16.63 54.49 17.08Q53.26 17.52 51.79 17.52L51.79 17.52Q50.30 17.52 49.06 17.09Q47.81 16.66 46.91 15.80Q46.01 14.95 45.50 13.72Q45.00 12.48 45.00 10.87L45.00 10.87L45.00 1.99ZM66.22 17.16L60.17 17.16L60.17 16.06L62.42 15.53L68.26 0.24L69.98 0.24L75.46 15.55L77.66 16.06L77.66 17.16L70.61 17.16L70.61 16.06L72.38 15.65L71.23 12.41L65.35 12.41L64.10 15.58L66.22 16.06L66.22 17.16ZM68.35 4.44L65.88 10.99L70.70 10.99L68.35 4.44ZM86.04 17.16L78.67 17.16L78.67 16.06L80.88 15.53L80.88 1.99L78.67 1.46L78.67 0.36L85.46 0.36Q86.76 0.36 87.84 0.56Q88.92 0.77 89.94 1.26Q90.96 1.75 91.55 2.72Q92.14 3.70 92.14 5.06L92.14 5.06Q92.14 8.26 88.82 9.38L88.82 9.38L92.16 15.55L94.27 16.08L94.27 17.16L89.90 17.16L85.94 9.74L83.83 9.74L83.83 15.53L86.04 16.06L86.04 17.16ZM83.83 1.87L83.83 8.30L85.22 8.30Q86.98 8.30 88.04 7.44Q89.11 6.58 89.11 5.02L89.11 5.02Q89.11 3.48 88.06 2.68Q87 1.87 85.22 1.87L85.22 1.87L83.83 1.87ZM108.36 17.16L95.40 17.16L95.40 16.06L97.61 15.53L97.61 1.99L95.40 1.46L95.40 0.36L107.90 0.36L107.90 5.28L106.78 5.28L105.74 1.97L100.56 1.78L100.56 7.94L105.74 7.49L105.74 9.62L100.56 9.19L100.56 15.74L106.20 15.55L107.42 11.98L108.55 11.98L108.36 17.16ZM111.58 5.45L110.45 5.45L110.45 0.36L124.73 0.36L124.73 5.45L123.60 5.45L122.52 1.97L119.06 1.78L119.06 15.53L121.27 16.06L121.27 17.16L113.90 17.16L113.90 16.06L116.11 15.53L116.11 1.78L112.63 1.97L111.58 5.45ZM139.46 17.16L126.50 17.16L126.50 16.06L128.71 15.53L128.71 1.99L126.50 1.46L126.50 0.36L139.01 0.36L139.01 5.28L137.88 5.28L136.85 1.97L131.66 1.78L131.66 7.94L136.85 7.49L136.85 9.62L131.66 9.19L131.66 15.74L137.30 15.55L138.53 11.98L139.66 11.98L139.46 17.16Z" transform="translate(36, 7.572)"></path></svg>